<svg xmlns="http://www.w3.org/2000/svg" width="325" height="325" viewBox="0 0 31.844 31.844" fill="#dfe4e4">
    <path d="M30.578 17.446c.54-.29 1.215-1.538 1.215-1.538s-1.414-.125-1.953.165c-.053.03-.096.072-.146.106.073-.504.122-1.015.142-1.534.338.09.825-.062 1.178-.375.46-.405.83-1.775.83-1.775s-1.404.204-1.863.61c-.056.05-.095.113-.145.17a14.25 14.25 0 0 0-.19-1.586c.346 0 .776-.26 1.047-.64.354-.498.404-1.916.404-1.916s-1.322.516-1.676 1.015c-.037.05-.057.11-.088.167a13.35 13.35 0 0 0-.404-1.202c.346-.057.727-.396.918-.827.252-.558.028-1.96.028-1.96s-1.198.763-1.448 1.32c-.03.064-.04.132-.06.198a13.95 13.95 0 0 0-.7-1.225c.314-.13.613-.512.73-.945.162-.59-.277-1.94-.277-1.94s-1.065.94-1.226 1.53c-.02.076-.02.154-.03.23-.33-.416-.68-.815-1.052-1.192.285-.193.498-.645.515-1.103.022-.61-.712-1.825-.712-1.825s-.822 1.158-.846 1.77c-.003.07 0 .14.007.21a14.274 14.274 0 0 0-.95-.726c-.09-.303-.332-.624-.665-.825-.523-.315-1.94-.26-1.94-.26s.61 1.278 1.136 1.594c.232.14.496.21.742.225.25.17.498.346.735.533-.638.068-1.687.7-1.687.7s1.156.82 1.768.844c.47.017.943-.17 1.148-.452.252.253.49.52.722.793-.644-.064-1.776.302-1.776.302s.938 1.063 1.53 1.224c.46.124.97.04 1.23-.198.187.29.36.585.523.89-.61-.187-1.846.007-1.846.007s.76 1.196 1.32 1.446c.415.187.91.196 1.208.03.1.26.192.526.276.795-.556-.306-1.824-.355-1.824-.355s.518 1.32 1.017 1.675c.376.267.866.373 1.194.26.062.355.11.715.145 1.08-.496-.41-1.665-.73-1.665-.73s.205 1.404.612 1.86c.3.34.745.552 1.088.523a13.36 13.36 0 0 1-.078 1.083c-.36-.523-1.48-1.134-1.48-1.134s-.124 1.414.167 1.952c.233.434.662.746 1.02.752-.078.316-.162.632-.264.94-.256-.57-1.365-1.354-1.365-1.354s-.29 1.39-.062 1.958c.164.42.508.768.836.86-.134.282-.27.56-.424.83-.145-.603-1.09-1.58-1.09-1.58s-.543 1.31-.428 1.91c.082.44.35.84.65 1-.195.263-.396.522-.61.77-.01-.616-.77-1.785-.77-1.785s-.784 1.182-.788 1.792c-.002.454.186.908.46 1.116-.237.215-.48.425-.73.623 0-.012.005-.02.006-.033.073-.607-.556-1.88-.556-1.88s-.916 1.082-.99 1.688c-.053.42.066.845.28 1.095-.31.19-.624.367-.95.53.033-.09.062-.18.08-.272.117-.6-.42-1.914-.42-1.914s-.992 1.014-1.108 1.615c-.08.412.008.846.204 1.11-.57.216-1.164.382-1.768.52a2.844 2.844 0 0 0-2.716-2.03 2.84 2.84 0 0 0-2.716 2.03 13.164 13.164 0 0 1-1.768-.52c.196-.265.285-.698.204-1.11-.116-.602-1.108-1.616-1.108-1.616s-.538 1.312-.42 1.913c.018.093.047.183.08.27-.326-.16-.642-.34-.95-.528.212-.25.332-.676.28-1.094-.074-.605-.99-1.687-.99-1.687s-.63 1.27-.556 1.88c0 .012.005.02.006.033-.25-.198-.493-.407-.73-.623.273-.208.462-.663.46-1.116-.004-.612-.79-1.792-.79-1.792s-.757 1.17-.767 1.786c-.215-.248-.417-.508-.612-.77.3-.16.567-.56.65-1 .116-.602-.428-1.91-.428-1.91s-.945.978-1.09 1.58c-.152-.27-.29-.548-.423-.83.33-.093.67-.44.836-.86.226-.57-.063-1.958-.063-1.958s-1.11.784-1.366 1.353a12.69 12.69 0 0 1-.264-.94c.358-.005.787-.317 1.02-.75.29-.54.167-1.953.167-1.953s-1.12.61-1.48 1.134a13.295 13.295 0 0 1-.078-1.083c.34.03.787-.183 1.088-.522.407-.456.612-1.86.612-1.86s-1.168.32-1.665.73c.033-.364.082-.725.145-1.08.327.113.818.007 1.194-.26.5-.353 1.016-1.675 1.016-1.675s-1.268.05-1.825.356c.084-.27.176-.534.277-.795.3.167.794.157 1.208-.03C5.64 9.208 6.4 8.01 6.4 8.01s-1.24-.192-1.85-.006c.163-.304.337-.6.524-.89.26.24.77.323 1.23.198.59-.16 1.53-1.224 1.53-1.224s-1.134-.365-1.777-.3c.23-.274.47-.54.72-.794.207.28.682.468 1.15.452.61-.022 1.768-.844 1.768-.844s-1.05-.632-1.687-.7c.238-.187.485-.362.736-.532a1.66 1.66 0 0 0 .742-.226c.524-.316 1.136-1.595 1.136-1.595s-1.417-.056-1.94.26c-.334.2-.576.52-.666.822-.328.228-.644.472-.95.725.006-.07.01-.14.007-.21-.023-.612-.845-1.77-.845-1.77s-.736 1.214-.713 1.826c.017.458.23.91.514 1.102A14.54 14.54 0 0 0 4.977 5.5c-.01-.078-.01-.156-.03-.23-.16-.592-1.225-1.53-1.225-1.53s-.44 1.348-.278 1.938c.118.434.417.816.732.947-.253.395-.488.802-.7 1.225-.02-.066-.03-.134-.06-.197-.25-.558-1.448-1.32-1.448-1.32s-.225 1.4.027 1.958c.193.43.574.77.918.828-.15.392-.288.792-.404 1.2-.03-.055-.05-.115-.087-.167C2.07 9.65.747 9.136.747 9.136s.05 1.418.405 1.917c.27.378.7.64 1.047.638-.093.52-.16 1.048-.192 1.586-.05-.057-.09-.12-.146-.17C1.404 12.7 0 12.496 0 12.496s.37 1.37.83 1.777c.352.313.84.466 1.177.375.02.52.067 1.03.142 1.533-.05-.033-.093-.076-.147-.105-.54-.29-1.953-.165-1.953-.165s.676 1.248 1.215 1.54c.386.206.85.25 1.162.124.1.394.214.78.347 1.16-.045-.023-.083-.056-.13-.074-.57-.225-1.958.066-1.958.066s.817 1.16 1.387 1.383c.442.175.956.148 1.24-.057.182.384.377.76.59 1.124-.045-.013-.09-.027-.137-.035-.6-.115-1.912.428-1.912.428s1.02.988 1.62 1.103c.474.09.978-.036 1.216-.297.257.35.528.688.816 1.015-.04 0-.077-.007-.116-.006-.612.004-1.793.79-1.793.79s1.19.772 1.802.77c.47-.004.94-.215 1.13-.508.277.254.56.498.855.73-.026 0-.052-.005-.078-.002-.608.075-1.69.993-1.69.993s1.272.63 1.88.554c.502-.06.972-.36 1.093-.703.236.146.468.3.713.434-.6.25-1.413 1.044-1.413 1.044s1.312.533 1.912.414c.485-.094.922-.412 1.033-.752.724.287 1.48.512 2.255.676.105 1.48 1.326 2.65 2.83 2.65s2.727-1.17 2.832-2.65c.776-.164 1.53-.39 2.256-.676.11.34.547.658 1.032.752.6.12 1.914-.418 1.914-.418s-.812-.793-1.413-1.043c.246-.134.478-.285.714-.434.12.343.592.643 1.094.704.607.075 1.88-.554 1.88-.554s-1.083-.918-1.69-.994c-.025-.003-.052.003-.078 0 .295-.23.578-.474.854-.728.19.293.66.504 1.133.508.61.004 1.802-.77 1.802-.77s-1.182-.786-1.794-.79c-.04 0-.077.005-.116.007.288-.324.56-.664.816-1.015.238.26.742.388 1.215.297.603-.115 1.622-1.104 1.622-1.104s-1.31-.543-1.912-.43c-.046.01-.092.023-.137.037.213-.363.408-.738.59-1.124.283.204.797.23 1.24.055.57-.224 1.387-1.384 1.387-1.384s-1.39-.29-1.958-.064c-.047.02-.085.05-.13.074a14.1 14.1 0 0 0 .347-1.16c.307.126.77.083 1.158-.124z"/>
</svg>