<?xml version="1.0" encoding="utf-8"?>
<!-- Generator: Adobe Illustrator 21.1.0, SVG Export Plug-In . SVG Version: 6.00 Build 0)  -->
<svg version="1.1" id="Capa_1" xmlns="http://www.w3.org/2000/svg" xmlns:xlink="http://www.w3.org/1999/xlink" x="0px" y="0px"
	 viewBox="0 0 53 49.5" style="enable-background:new 0 0 53 49.5;" xml:space="preserve">
<style type="text/css">
	.st0{stroke:#000000;stroke-miterlimit:10;}
</style>
<g>
	<path class="st0" d="M52.4,14.9C51.7,6.6,45.7,0.5,38.3,0.5c-4.9,0-9.4,2.7-12,6.9c-2.5-4.3-6.8-6.9-11.7-6.9
		C7.3,0.5,1.3,6.6,0.6,14.9c-0.1,0.4-0.3,2.3,0.4,5.5c1.1,4.6,3.6,8.7,7.2,12l18.1,16.4l18.4-16.4c3.6-3.3,6.1-7.4,7.2-12
		C52.7,17.2,52.5,15.3,52.4,14.9z M50,19.9c-1,4.2-3.3,8-6.6,11L26.4,46.2L9.6,30.9c-3.3-3-5.6-6.8-6.6-11c-0.7-3-0.4-4.7-0.4-4.7
		l0-0.1C3.2,7.8,8.3,2.5,14.7,2.5c4.7,0,8.8,2.9,10.8,7.5l0.9,2.2l0.9-2.2c1.9-4.6,6.3-7.5,11.1-7.5c6.4,0,11.4,5.3,12.1,12.7
		C50.4,15.2,50.7,16.9,50,19.9z"/>
</g>
</svg>
