<svg version="1.1" xmlns="http://www.w3.org/2000/svg" xmlns:xlink="http://www.w3.org/1999/xlink" x="0px" y="0px"
	 viewBox="0 0 512 512" style="enable-background:new 0 0 512 512;" xml:space="preserve" width="47" height="47" fill="#252525">
<g>
	<g>
		<path d="M493.08,327.584H434.2V191.051c0-9.387-7.68-17.067-17.067-17.067h-42.667H357.4V37.451
			c0-9.387-7.68-17.067-17.067-17.067h-42.667h-51.2H203.8c-9.387,0-17.067,7.68-17.067,17.067v136.533h-17.067H127
			c-9.387,0-17.067,7.68-17.067,17.067v136.533H92.867V113.397c0-16.213-5.12-32.427-14.507-45.227L48.493,22.944
			c-6.827-11.093-22.187-14.507-33.28-7.68C4.12,22.944,1.56,37.451,8.387,48.544l23.04,37.547
			c6.827,11.093,10.24,23.04,10.24,34.987v206.507H16.92c-10.24,0-17.92,8.533-17.92,17.92v24.747v67.413
			c0,10.24,7.68,17.92,17.92,17.92h25.477c4.095,24.134,25.217,42.667,50.47,42.667c25.253,0,46.375-18.533,50.47-42.667h223.327
			c4.095,24.134,25.217,42.667,50.47,42.667s46.375-18.533,50.47-42.667h25.477c10.24,0,17.92-7.68,17.92-17.92v-67.413v-24.747
			C511,335.264,502.467,327.584,493.08,327.584z M417.133,327.584H280.6V191.051h34.133v42.667c0,5.12,3.413,8.533,8.533,8.533h51.2
			c5.12,0,8.533-3.413,8.533-8.533v-42.667h34.133V327.584z M365.933,225.184H331.8v-34.133h17.067h17.067V225.184z M289.133,37.451
			v34.133H255V37.451H289.133z M203.8,37.451h34.133v42.667c0,5.12,3.413,8.533,8.533,8.533h51.2c5.12,0,8.533-3.413,8.533-8.533
			V37.451h34.133v136.533h-17.067h-51.2h-51.2H203.8V37.451z M195.267,191.051h17.067v34.133H178.2v-34.133H195.267z M127,191.051
			h34.133v42.667c0,5.12,3.413,8.533,8.533,8.533h51.2c5.12,0,8.533-3.413,8.533-8.533v-42.667h34.133v136.533H127V191.051z
			 M45.933,77.557l-23.04-37.547c-2.56-3.413-0.853-7.68,1.707-10.24c3.413-1.707,7.68-0.853,10.24,2.56l29.867,45.227
			c7.68,10.24,11.093,23.04,11.093,35.84v214.187H58.733V121.077C58.733,105.717,54.467,90.357,45.933,77.557z M16.067,345.504
			c0-0.853,0-0.853,0.853-0.853H50.2h34.133h34.133h153.6h153.6h67.413c0.853,0,0.853,0.853,0.853,0.853v16.213H16.067V345.504z
			 M92.867,481.184c-18.773,0-34.133-15.36-34.133-34.133c0-18.773,15.36-34.133,34.133-34.133c18.773,0,34.133,15.36,34.133,34.133
			C127,465.824,111.64,481.184,92.867,481.184z M417.133,481.184c-18.773,0-34.133-15.36-34.133-34.133
			c0-18.773,15.36-34.133,34.133-34.133c18.773,0,34.133,15.36,34.133,34.133C451.267,465.824,435.907,481.184,417.133,481.184z
			 M493.933,437.664c0,0.853-0.853,0.853-0.853,0.853h-25.477c-2.881-16.98-14.192-31.177-29.444-38.106
			c-0.338-0.155-0.674-0.314-1.017-0.461c-0.215-0.092-0.433-0.176-0.65-0.265c-0.552-0.229-1.107-0.452-1.669-0.661
			c-0.153-0.057-0.308-0.109-0.462-0.165c-0.625-0.226-1.254-0.441-1.89-0.643c-0.138-0.044-0.276-0.085-0.415-0.127
			c-0.648-0.199-1.302-0.387-1.962-0.56c-0.146-0.038-0.292-0.076-0.439-0.113c-0.648-0.164-1.301-0.316-1.96-0.455
			c-0.166-0.035-0.331-0.071-0.497-0.104c-0.636-0.128-1.277-0.242-1.922-0.346c-0.191-0.031-0.381-0.064-0.573-0.093
			c-0.621-0.093-1.248-0.17-1.877-0.24c-0.213-0.024-0.425-0.052-0.639-0.074c-0.629-0.062-1.263-0.107-1.899-0.146
			c-0.21-0.013-0.417-0.033-0.628-0.043c-0.837-0.041-1.68-0.065-2.529-0.065c-0.849,0-1.692,0.024-2.529,0.065
			c-0.21,0.01-0.418,0.03-0.628,0.043c-0.636,0.039-1.27,0.084-1.899,0.146c-0.214,0.021-0.426,0.05-0.639,0.074
			c-0.629,0.07-1.256,0.148-1.877,0.24c-0.192,0.029-0.382,0.062-0.573,0.093c-0.645,0.104-1.286,0.218-1.922,0.346
			c-0.166,0.033-0.332,0.069-0.497,0.104c-0.659,0.139-1.312,0.291-1.96,0.455c-0.146,0.037-0.293,0.074-0.439,0.113
			c-0.66,0.174-1.314,0.361-1.962,0.561c-0.138,0.042-0.276,0.083-0.414,0.127c-0.637,0.202-1.267,0.418-1.892,0.644
			c-0.153,0.055-0.308,0.107-0.46,0.164c-0.563,0.21-1.119,0.433-1.672,0.662c-0.215,0.089-0.433,0.172-0.647,0.264
			c-0.344,0.148-0.681,0.308-1.021,0.464c-15.249,6.93-26.559,21.126-29.439,38.104H143.337
			c-2.881-16.98-14.192-31.177-29.444-38.106c-0.338-0.155-0.674-0.314-1.017-0.461c-0.215-0.092-0.433-0.176-0.65-0.265
			c-0.552-0.229-1.107-0.452-1.669-0.661c-0.153-0.057-0.308-0.109-0.462-0.165c-0.625-0.226-1.254-0.441-1.89-0.643
			c-0.138-0.044-0.276-0.085-0.415-0.127c-0.648-0.199-1.302-0.386-1.962-0.56c-0.146-0.038-0.292-0.076-0.439-0.113
			c-0.648-0.164-1.301-0.316-1.959-0.455c-0.166-0.035-0.331-0.071-0.498-0.104c-0.636-0.128-1.277-0.242-1.921-0.346
			c-0.191-0.031-0.381-0.064-0.573-0.093c-0.621-0.093-1.248-0.17-1.877-0.24c-0.213-0.024-0.425-0.052-0.639-0.074
			c-0.629-0.062-1.263-0.107-1.899-0.146c-0.21-0.013-0.417-0.033-0.628-0.043c-0.837-0.041-1.68-0.065-2.529-0.065
			c-0.849,0-1.692,0.024-2.529,0.065c-0.21,0.01-0.418,0.03-0.628,0.043c-0.636,0.039-1.27,0.084-1.899,0.146
			c-0.214,0.021-0.426,0.05-0.639,0.074c-0.629,0.07-1.256,0.148-1.877,0.24c-0.192,0.029-0.382,0.062-0.574,0.093
			c-0.645,0.104-1.285,0.218-1.921,0.345c-0.167,0.034-0.332,0.069-0.498,0.104c-0.658,0.139-1.311,0.291-1.959,0.455
			c-0.146,0.037-0.293,0.074-0.439,0.113c-0.66,0.174-1.314,0.361-1.962,0.561c-0.138,0.042-0.276,0.083-0.414,0.127
			c-0.637,0.202-1.267,0.418-1.892,0.644c-0.153,0.055-0.308,0.107-0.46,0.164c-0.563,0.21-1.119,0.433-1.672,0.662
			c-0.215,0.089-0.433,0.172-0.647,0.264c-0.343,0.148-0.68,0.307-1.019,0.463c-15.25,6.93-26.561,21.126-29.441,38.105H16.92
			c-0.853,0-0.853,0-0.853-0.853v-58.88h477.867V437.664z"/>
	</g>
</g>
</svg>
