<svg version="1.1" xmlns="http://www.w3.org/2000/svg" xmlns:xlink="http://www.w3.org/1999/xlink" x="0px" y="0px"
	 viewBox="0 0 512 512" style="enable-background:new 0 0 512 512;" xml:space="preserve" width="47" height="47" fill="#252525">
<g>
	<g>
		<path d="M505.7,159.6L336.5,50.7c-3.4-2.2-7.9-1.2-10.1,2.2c-2.2,3.4-1.2,7.9,2.2,10.1l166.8,107.3h-38.9L266.6,48.1
			c-6.5-4.2-14.8-4.2-21.3,0L55.5,170.2H16.6L256,16.2L289.9,38c3.4,2.2,7.9,1.2,10.1-2.2c2.2-3.4,1.2-7.9-2.2-10.1L263.9,4
			c-4.8-3.1-10.9-3.1-15.7,0L6.3,159.6c-5.2,3.3-7.4,9.5-5.7,15.4c1.7,5.9,7,9.8,13.1,9.8h36.7v25.1v22c0,5.8,4.1,10.6,9.6,11.8
			v12.8c0,6.6,5.4,12,12,12h1v89.1c0,4,3.3,7.3,7.3,7.3c4,0,7.3-3.3,7.3-7.3v-96.4c0-4-3.3-7.3-7.3-7.3h-5.8v-10H126v10h-5.8
			c-4,0-7.3,3.3-7.3,7.3v160.7c0,4,3.3,7.3,7.3,7.3h5.8V440H74.5v-10.9h5.8c4,0,7.3-3.3,7.3-7.3v-18.6c0-4-3.3-7.3-7.3-7.3
			c-4,0-7.3,3.3-7.3,7.3v11.3h-1c-6.6,0-12,5.4-12,12v12.8c-5.5,1.1-9.6,6-9.6,11.8v14.7H24.6c-8,0-14.6,6.5-14.6,14.6v15.3
			c0,8,6.5,14.6,14.6,14.6h462.8c8,0,14.6-6.5,14.6-14.6v-15.3c0-8-6.5-14.6-14.6-14.6h-25.8v-14.7c0-5.8-4.1-10.6-9.6-11.8v-12.8
			c0-6.6-5.4-12-12-12h-1V268.4h1c6.6,0,12-5.4,12-12v-12.8c5.5-1.1,9.6-6,9.6-11.8v-22v-25.1h36.7c6.1,0,11.4-3.9,13.1-9.8
			C513.2,169.1,510.9,162.9,505.7,159.6z M253.2,60.3c1.7-1.1,3.9-1.1,5.5,0l170.8,109.9H82.4L253.2,60.3z M64.9,184.8h382.2v17.8
			h-77.9h-70.6h-85.2h-70.6H64.9V184.8z M296.3,439.4v-12.8c0-6.6-5.4-12-12-12h-1V268.4h1c6.6,0,12-5.4,12-12v-12.8
			c5.5-1.1,9.6-6,9.6-11.8v-14.7h56v14.7c0,5.8,4.1,10.6,9.6,11.8v12.8c0,6.6,5.4,12,12,12h1v146.1h-1c-6.6,0-12,5.4-12,12v12.8
			c-5.5,1.1-9.6,6-9.6,11.8v14.7h-56v-14.7C305.9,445.4,301.8,440.6,296.3,439.4z M140.5,439.4v-12.8c0-6.6-5.4-12-12-12h-1V268.4h1
			c6.6,0,12-5.4,12-12v-12.8c5.5-1.1,9.6-6,9.6-11.8v-14.7h56v14.7c0,5.8,4.1,10.6,9.6,11.8v12.8c0,6.6,5.4,12,12,12h1v146.1h-1
			c-6.6,0-12,5.4-12,12v12.8c-5.5,1.1-9.6,6-9.6,11.8v14.7h-56v-14.7C150.1,445.4,146,440.6,140.5,439.4z M276,429.1h5.8V440h-51.5
			v-10.9h5.8c4,0,7.3-3.3,7.3-7.3V261.1c0-4-3.3-7.3-7.3-7.3h-5.8v-10h51.5v10H276c-4,0-7.3,3.3-7.3,7.3v160.7
			C268.7,425.9,272,429.1,276,429.1z M223,229.3L223,229.3h-2.3v-12.2h70.6v12.2H289c0,0,0,0,0,0s0,0,0,0H223z M220.7,454.2
			c0.7,0.2,1.5,0.4,2.3,0.4H289c0.8,0,1.6-0.1,2.3-0.4v11.7h-70.6V454.2z M67.2,229.3h-2.3v-12.2h70.6v12.2h0h-2.3H67.2z
			 M64.9,454.2c0.7,0.2,1.5,0.4,2.3,0.4h66.1c0.8,0,1.6-0.1,2.3-0.4v11.7H64.9L64.9,454.2L64.9,454.2z M487.4,480.5l0,15.3
			c0,0,0,0,0,0l-462.8,0l0-15.3L487.4,480.5z M444.8,454.6c0.8,0,1.6-0.1,2.3-0.4v11.7h-70.6v-11.7c0.7,0.2,1.5,0.4,2.3,0.4H444.8z
			 M391.8,253.9H386v-10h51.5v10h-5.8c-4,0-7.3,3.3-7.3,7.3v160.7c0,4,3.3,7.3,7.3,7.3h5.8V440H386v-10.9h5.8c4,0,7.3-3.3,7.3-7.3
			V261.1C399,257.1,395.8,253.9,391.8,253.9z M447.1,229.3L447.1,229.3h-2.3c0,0,0,0,0,0s0,0,0,0h-66h0h-2.3v-12.2h70.6L447.1,229.3
			L447.1,229.3z"/>
	</g>
</g>
</svg>
